<?xml version="1.0" standalone="no"?>
<!DOCTYPE svg PUBLIC "-//W3C//DTD SVG 20010904//EN"
 "http://www.w3.org/TR/2001/REC-SVG-20010904/DTD/svg10.dtd">
<svg version="1.0" xmlns="http://www.w3.org/2000/svg"
 width="571.000000pt" height="400.000000pt" viewBox="0 0 571.000000 400.000000"
 preserveAspectRatio="xMidYMid meet">

<g transform="translate(0.000000,400.000000) scale(0.100000,-0.100000)"
fill="#000000" stroke="none">
<path d="M3020 3160 l0 -220 200 0 200 0 0 220 0 220 -200 0 -200 0 0 -220z
m234 148 c18 -26 21 -48 6 -48 -6 0 -10 6 -9 13 3 24 -1 35 -17 41 -22 9 -44
-11 -44 -40 0 -23 3 -24 60 -24 l60 0 0 -96 0 -95 -87 3 -88 3 -3 93 -3 92 26
0 c21 0 25 5 25 30 0 48 48 66 74 28z"/>
<path d="M3205 3158 c7 -43 12 -55 19 -47 2 2 7 23 11 47 6 39 5 42 -15 42
-20 0 -21 -3 -15 -42z"/>
<path d="M1830 3262 c0 -40 2 -42 29 -42 43 0 45 13 6 50 l-35 34 0 -42z"/>
<path d="M1448 3084 c-4 -3 -3 -17 3 -31 5 -13 9 -37 9 -53 0 -27 3 -29 48
-32 26 -2 72 -1 103 0 l57 4 -2 56 -2 57 -105 3 c-58 1 -108 0 -111 -4z m62
-36 c0 -9 3 -8 10 2 7 12 10 12 16 -4 7 -18 8 -18 21 0 12 16 13 15 13 -17 0
-27 -3 -31 -11 -19 -8 11 -12 12 -16 3 -7 -18 -21 -16 -25 4 -3 16 -4 16 -20
0 -23 -24 -28 -21 -28 13 0 23 4 30 20 30 11 0 20 -6 20 -12z m113 -2 c5 -11
-24 -46 -38 -46 -3 0 -5 14 -5 30 0 23 5 30 19 30 10 0 21 -6 24 -14z"/>
<path d="M2110 3060 c0 -5 5 -10 10 -10 6 0 10 5 10 10 0 6 -4 10 -10 10 -5 0
-10 -4 -10 -10z"/>
<path d="M2200 3060 c0 -5 14 -10 30 -10 17 0 30 5 30 10 0 6 -13 10 -30 10
-16 0 -30 -4 -30 -10z"/>
<path d="M2300 3060 c0 -6 27 -10 60 -10 33 0 60 4 60 10 0 6 -27 10 -60 10
-33 0 -60 -4 -60 -10z"/>
<path d="M2520 3060 c0 -5 11 -10 25 -10 14 0 25 5 25 10 0 6 -11 10 -25 10
-14 0 -25 -4 -25 -10z"/>
<path d="M2110 3020 c0 -5 5 -10 10 -10 6 0 10 5 10 10 0 6 -4 10 -10 10 -5 0
-10 -4 -10 -10z"/>
<path d="M2390 3020 c0 -6 38 -10 95 -10 57 0 95 4 95 10 0 6 -38 10 -95 10
-57 0 -95 -4 -95 -10z"/>
<path d="M2770 3020 c0 -5 11 -10 25 -10 14 0 25 5 25 10 0 6 -11 10 -25 10
-14 0 -25 -4 -25 -10z"/>
<path d="M2110 2986 c0 -9 5 -16 10 -16 6 0 10 4 10 9 0 6 -4 13 -10 16 -5 3
-10 -1 -10 -9z"/>
<path d="M2200 2985 c0 -12 7 -15 25 -13 14 2 26 8 26 13 0 6 -12 11 -26 13
-18 2 -25 -1 -25 -13z"/>
<path d="M2300 2983 c0 -10 24 -13 105 -13 84 0 105 3 105 14 0 11 -21 14
-105 13 -80 0 -105 -4 -105 -14z"/>
<path d="M2715 2990 c-3 -6 0 -13 9 -16 21 -8 86 0 86 11 0 13 -87 18 -95 5z"/>
<path d="M2847 2994 c-11 -11 3 -24 24 -24 12 0 19 5 17 13 -5 14 -31 21 -41
11z"/>
<path d="M2110 2944 c0 -8 5 -12 10 -9 6 3 10 10 10 16 0 5 -4 9 -10 9 -5 0
-10 -7 -10 -16z"/>
<path d="M2300 2950 c0 -6 30 -10 70 -10 39 0 73 0 77 -1 4 0 9 4 11 10 2 7
-24 11 -77 11 -47 0 -81 -4 -81 -10z"/>
<path d="M3809 2933 c-5 -13 -9 -76 -9 -139 l0 -114 178 0 177 0 0 43 0 42
113 0 112 0 0 83 0 82 -40 0 c-21 0 -61 4 -87 9 -26 6 -135 12 -241 14 l-194
4 -9 -24z m534 -20 c-13 -2 -35 -2 -50 0 -16 2 -5 4 22 4 28 0 40 -2 28 -4z
m-364 -28 c27 -14 41 -33 41 -58 0 -7 -9 3 -20 21 -16 26 -26 32 -53 32 -40 0
-69 -28 -69 -65 0 -29 28 -65 50 -65 9 0 13 -3 9 -6 -11 -11 -47 7 -63 32 -23
35 -11 90 24 109 34 18 47 18 81 0z m364 -2 c-13 -2 -35 -2 -50 0 -16 2 -5 4
22 4 28 0 40 -2 28 -4z m0 -30 c-13 -2 -35 -2 -50 0 -16 2 -5 4 22 4 28 0 40
-2 28 -4z m-380 -27 c8 -20 -20 -43 -35 -28 -14 14 -3 42 16 42 7 0 16 -6 19
-14z m394 -2 c-3 -3 -22 -6 -42 -6 -20 0 -39 3 -42 6 -4 3 15 6 42 6 27 0 46
-3 42 -6z m-217 -34 c0 -5 -18 -10 -40 -10 -22 0 -40 5 -40 10 0 6 18 10 40
10 22 0 40 -4 40 -10z m-40 -50 c0 -11 -7 -20 -15 -20 -8 0 -15 9 -15 20 0 11
7 20 15 20 8 0 15 -9 15 -20z"/>
<path d="M1313 2626 l0 -56 743 0 744 0 0 55 0 56 -672 -5 c-370 -3 -693 -6
-718 -8 -25 -1 -57 1 -71 6 -26 7 -26 7 -26 -48z m67 1 c0 -19 -10 -27 -26
-20 -21 8 -17 33 6 33 11 0 20 -6 20 -13z m70 0 c0 -19 -10 -27 -26 -20 -21 8
-17 33 6 33 11 0 20 -6 20 -13z m70 -1 c0 -8 -4 -17 -8 -20 -13 -8 -35 11 -28
23 10 16 36 14 36 -3z"/>
<path d="M3550 2560 c-18 -5 -39 -15 -45 -23 -15 -20 -50 -37 -77 -37 -32 0
-103 -36 -86 -44 7 -3 -15 -4 -50 -3 -63 2 -70 -1 -51 -20 7 -7 4 -18 -14 -35
-31 -31 -43 -95 -27 -143 11 -33 8 -82 -6 -120 -3 -7 1 -12 8 -12 7 1 14 -2
15 -7 1 -5 7 -13 15 -17 8 -6 9 -9 1 -9 -15 0 -1 -52 16 -58 10 -3 11 0 2 16
-18 34 -12 39 8 7 10 -16 30 -41 44 -54 l26 -23 7 61 c5 50 11 64 29 74 28 15
95 74 95 83 0 4 17 32 38 63 20 31 42 65 48 76 6 11 16 19 22 18 7 -2 11 2 10
8 -2 6 3 14 11 17 8 3 11 0 7 -7 -5 -8 0 -8 19 -1 30 11 59 0 69 -26 3 -8 7
-48 7 -87 1 -55 3 -63 8 -37 7 35 7 34 14 -17 5 -33 17 -63 33 -83 30 -35 21
-40 -13 -8 -13 12 -23 16 -23 10 0 -6 10 -18 23 -27 19 -12 29 -13 55 -3 53
20 67 4 67 -78 0 -68 0 -69 -27 -72 -32 -4 -37 -17 -10 -26 9 -3 23 -9 30 -12
8 -4 12 3 12 18 1 20 2 21 11 6 15 -26 29 -22 29 8 0 15 13 41 31 62 26 29 30
41 26 69 -7 43 0 63 24 63 10 0 19 5 19 10 0 6 -4 10 -10 10 -5 0 -19 18 -30
40 -15 29 -20 59 -20 118 0 86 -5 96 -59 112 -36 10 -120 61 -121 73 0 5 6 5
13 2 6 -4 -3 7 -21 24 -38 36 -52 38 -77 11 -17 -19 -18 -19 -45 10 -16 17
-32 30 -37 29 -4 -1 -24 -5 -43 -9z m196 -45 c10 -8 15 -14 9 -14 -5 0 -19 6
-29 14 -11 8 -15 15 -10 15 6 0 19 -7 30 -15z m174 -136 c6 -11 10 -26 8 -33
-2 -7 -10 2 -19 20 -18 36 -7 48 11 13z"/>
<path d="M2698 2473 l-278 -3 0 -35 0 -35 280 0 280 0 0 40 c0 22 -1 39 -2 38
-2 -2 -128 -4 -280 -5z"/>
<path d="M1460 2460 c0 -5 23 -10 50 -10 28 0 50 5 50 10 0 6 -22 10 -50 10
-27 0 -50 -4 -50 -10z"/>
<path d="M1650 2460 c0 -5 11 -10 25 -10 14 0 25 5 25 10 0 6 -11 10 -25 10
-14 0 -25 -4 -25 -10z"/>
<path d="M1600 2420 c0 -6 35 -10 85 -10 50 0 85 4 85 10 0 6 -35 10 -85 10
-50 0 -85 -4 -85 -10z"/>
<path d="M1930 2420 c0 -5 9 -10 20 -10 11 0 20 5 20 10 0 6 -9 10 -20 10 -11
0 -20 -4 -20 -10z"/>
<path d="M1405 2380 c-3 -5 -1 -10 4 -10 6 0 11 5 11 10 0 6 -2 10 -4 10 -3 0
-8 -4 -11 -10z"/>
<path d="M1460 2379 c0 -6 33 -9 90 -8 50 1 90 6 90 10 0 5 -40 9 -90 9 -56 0
-90 -4 -90 -11z"/>
<path d="M1820 2380 c0 -5 20 -10 45 -10 25 0 45 5 45 10 0 6 -20 10 -45 10
-25 0 -45 -4 -45 -10z"/>
<path d="M1930 2380 c0 -5 9 -10 20 -10 11 0 20 5 20 10 0 6 -9 10 -20 10 -11
0 -20 -4 -20 -10z"/>
<path d="M1405 2340 c-3 -5 -1 -10 4 -10 6 0 11 5 11 10 0 6 -2 10 -4 10 -3 0
-8 -4 -11 -10z"/>
<path d="M1460 2340 c0 -6 27 -10 60 -10 33 0 63 0 67 -1 4 0 9 4 11 10 2 7
-21 11 -67 11 -41 0 -71 -4 -71 -10z"/>
<path d="M1520 2301 c0 -5 9 -11 20 -14 13 -3 20 0 20 9 0 8 -9 14 -20 14 -11
0 -20 -4 -20 -9z"/>
<path d="M1725 2300 c-7 -12 -8 -12 30 -12 85 -1 135 3 135 12 0 6 -33 10 -79
10 -44 0 -83 -4 -86 -10z"/>
<path d="M2290 2290 c0 -6 28 -10 65 -10 37 0 65 4 65 10 0 6 -28 10 -65 10
-37 0 -65 -4 -65 -10z"/>
<path d="M4232 2260 c0 -25 2 -37 5 -27 5 21 43 23 43 2 0 -8 5 -15 10 -15 12
0 13 67 1 74 -5 3 -11 -3 -14 -14 -7 -27 -26 -25 -37 3 -7 18 -9 13 -8 -23z"/>
<path d="M4318 2293 c6 -2 12 -20 12 -39 0 -19 5 -34 10 -34 6 0 10 15 10 34
0 19 6 37 13 39 6 3 -4 5 -23 5 -19 0 -29 -2 -22 -5z"/>
<path d="M4391 2258 c1 -35 2 -38 8 -18 l7 25 8 -22 c4 -13 11 -23 15 -23 4 0
13 10 19 23 l11 22 0 -22 c2 -41 21 -24 21 17 0 48 -16 52 -35 8 l-14 -33 -13
33 c-17 44 -28 40 -27 -10z"/>
<path d="M4502 2263 c-2 -39 0 -43 21 -42 16 1 17 3 5 6 -11 3 -18 17 -21 41
l-4 37 -1 -42z"/>
<path d="M1460 2255 c0 -10 7 -15 18 -13 21 4 19 22 -2 26 -10 2 -16 -3 -16
-13z"/>
<path d="M1520 2256 c0 -10 13 -14 45 -14 32 0 45 4 45 14 0 10 -13 14 -45 14
-32 0 -45 -4 -45 -14z"/>
<path d="M1790 2255 c0 -12 17 -15 90 -15 73 0 90 3 90 15 0 12 -17 15 -90 15
-73 0 -90 -3 -90 -15z"/>
<path d="M2390 2250 c0 -5 20 -10 45 -10 25 0 45 5 45 10 0 6 -20 10 -45 10
-25 0 -45 -4 -45 -10z"/>
<path d="M1460 2215 c0 -11 12 -15 50 -15 38 0 50 4 50 15 0 11 -12 15 -50 15
-38 0 -50 -4 -50 -15z"/>
<path d="M1655 2220 c-8 -12 20 -24 35 -15 6 3 8 11 5 16 -8 12 -32 12 -40 -1z"/>
<path d="M3613 2204 c-27 -11 -11 -24 28 -24 28 0 39 4 37 13 -5 13 -44 19
-65 11z"/>
<path d="M1640 2173 c0 -11 15 -13 63 -11 78 4 74 23 -5 24 -43 0 -58 -3 -58
-13z"/>
<path d="M1930 2175 c0 -8 9 -15 20 -15 11 0 20 7 20 15 0 8 -9 15 -20 15 -11
0 -20 -7 -20 -15z"/>
<path d="M2397 2164 c-13 -14 -8 -94 6 -94 16 0 57 -42 57 -58 0 -8 18 -12 50
-12 56 0 60 7 36 63 -14 35 -78 97 -101 97 -7 0 -20 2 -27 5 -8 3 -17 2 -21
-1z"/>
<path d="M1460 2133 c0 -9 19 -13 70 -13 56 0 70 3 70 15 0 13 -13 15 -70 13
-49 -1 -70 -6 -70 -15z"/>
<path d="M1824 2141 c-13 -14 2 -21 42 -21 32 0 44 4 41 13 -3 11 -73 18 -83
8z"/>
<path d="M1935 2140 c-3 -6 1 -13 10 -16 19 -8 30 0 20 15 -8 14 -22 14 -30 1z"/>
<path d="M3412 2103 c2 -10 10 -18 18 -18 8 0 16 8 18 18 2 12 -3 17 -18 17
-15 0 -20 -5 -18 -17z"/>
<path d="M3632 2103 c2 -10 10 -18 18 -18 8 0 16 8 18 18 2 12 -3 17 -18 17
-15 0 -20 -5 -18 -17z"/>
<path d="M1405 2090 c3 -5 8 -10 11 -10 2 0 4 5 4 10 0 6 -5 10 -11 10 -5 0
-7 -4 -4 -10z"/>
<path d="M1460 2090 c0 -6 28 -10 64 -10 36 0 68 5 71 10 4 6 -20 10 -64 10
-41 0 -71 -4 -71 -10z"/>
<path d="M1405 2050 c3 -5 8 -10 11 -10 2 0 4 5 4 10 0 6 -5 10 -11 10 -5 0
-7 -4 -4 -10z"/>
<path d="M1520 2050 c0 -5 9 -10 20 -10 11 0 20 5 20 10 0 6 -9 10 -20 10 -11
0 -20 -4 -20 -10z"/>
<path d="M1720 2050 c0 -6 35 -10 85 -10 50 0 85 4 85 10 0 6 -35 10 -85 10
-50 0 -85 -4 -85 -10z"/>
<path d="M2660 2015 c0 -13 8 -16 38 -13 20 2 37 8 37 13 0 6 -17 11 -37 13
-30 3 -38 0 -38 -13z"/>
<path d="M1460 2010 c0 -5 9 -10 20 -10 11 0 20 5 20 10 0 6 -9 10 -20 10 -11
0 -20 -4 -20 -10z"/>
<path d="M1520 2010 c0 -5 18 -10 40 -10 22 0 40 5 40 10 0 6 -18 10 -40 10
-22 0 -40 -4 -40 -10z"/>
<path d="M1790 2010 c0 -6 37 -10 90 -10 53 0 90 4 90 10 0 6 -37 10 -90 10
-53 0 -90 -4 -90 -10z"/>
<path d="M2620 1975 c0 -9 9 -15 25 -15 16 0 25 6 25 15 0 9 -9 15 -25 15 -16
0 -25 -6 -25 -15z"/>
<path d="M990 1720 l0 -190 370 0 370 0 0 189 0 189 -370 1 -370 2 0 -191z
m194 84 c-6 -23 -4 -25 22 -22 21 2 30 9 32 26 2 15 10 22 26 22 19 0 22 -4
18 -25 -3 -20 0 -25 17 -25 14 0 21 -6 21 -20 0 -14 -7 -20 -24 -20 -22 0 -36
-16 -36 -41 0 -5 9 -9 21 -9 28 0 21 -34 -9 -38 -14 -2 -24 -13 -28 -28 -4
-16 -13 -24 -29 -24 -18 0 -21 4 -17 25 4 21 1 25 -21 25 -18 0 -26 -7 -31
-25 -4 -17 -13 -25 -27 -25 -17 0 -20 5 -17 25 4 21 1 25 -18 25 -36 0 -33 38
4 42 34 4 47 48 13 48 -34 0 -27 38 7 42 19 2 28 9 30 26 3 16 10 22 28 22 21
0 24 -3 18 -26z m264 14 c-3 -7 -15 -13 -28 -13 -13 0 -25 6 -27 13 -3 8 6 12
27 12 21 0 30 -4 28 -12z m32 2 c0 -5 -4 -10 -10 -10 -5 0 -10 5 -10 10 0 6 5
10 10 10 6 0 10 -4 10 -10z m40 1 c0 -6 -4 -13 -10 -16 -5 -3 -10 1 -10 9 0 9
5 16 10 16 6 0 10 -4 10 -9z m-70 -41 c0 -5 -7 -10 -15 -10 -8 0 -15 5 -15 10
0 6 7 10 15 10 8 0 15 -4 15 -10z m108 -2 c-3 -7 -23 -14 -46 -16 -33 -2 -42
0 -42 12 0 12 11 16 46 16 32 0 44 -4 42 -12z m72 2 c0 -5 -13 -10 -30 -10
-16 0 -30 5 -30 10 0 6 14 10 30 10 17 0 30 -4 30 -10z m38 -1 c-2 -6 -8 -10
-13 -10 -5 0 -11 4 -13 10 -2 6 4 11 13 11 9 0 15 -5 13 -11z m-178 -44 c0
-11 -12 -15 -50 -15 -38 0 -50 4 -50 15 0 11 12 15 50 15 38 0 50 -4 50 -15z
m80 0 c0 -10 -9 -14 -30 -12 -39 3 -39 27 0 27 20 0 30 -5 30 -15z m60 -1 c0
-10 -7 -14 -22 -12 -32 5 -35 28 -4 28 17 0 26 -5 26 -16z m40 0 c0 -9 -5 -14
-12 -12 -18 6 -21 28 -4 28 9 0 16 -7 16 -16z m-200 -39 c0 -11 -11 -15 -40
-15 -29 0 -40 4 -40 15 0 11 11 15 40 15 29 0 40 -4 40 -15z m68 3 c-7 -20
-58 -23 -58 -4 0 11 10 16 31 16 20 0 29 -4 27 -12z m-88 -43 c0 -8 -7 -15
-15 -15 -8 0 -15 7 -15 15 0 8 7 15 15 15 8 0 15 -7 15 -15z m70 -1 c0 -11 -8
-14 -27 -12 -39 4 -42 28 -4 28 21 0 31 -5 31 -16z m105 1 c0 -5 -21 -11 -47
-13 -39 -3 -48 0 -48 13 0 13 9 16 48 13 26 -2 47 -7 47 -13z m37 0 c0 -5 -5
-11 -11 -13 -6 -2 -11 4 -11 13 0 9 5 15 11 13 6 -2 11 -8 11 -13z m-242 -40
c0 -8 -7 -15 -15 -15 -8 0 -15 7 -15 15 0 8 7 15 15 15 8 0 15 -7 15 -15z m58
3 c-7 -20 -48 -23 -48 -4 0 11 9 16 26 16 16 0 24 -5 22 -12z m72 -3 c0 -10
-10 -15 -30 -15 -20 0 -30 5 -30 15 0 10 10 15 30 15 20 0 30 -5 30 -15z m120
0 c0 -11 -12 -15 -50 -15 -38 0 -50 4 -50 15 0 11 12 15 50 15 38 0 50 -4 50
-15z"/>
<path d="M1165 1719 c-9 -27 -3 -31 29 -23 17 4 26 13 26 25 0 27 -46 26 -55
-2z"/>
<path d="M3530 1876 c4 -4 16 -4 26 2 16 9 14 10 -8 9 -15 -1 -23 -6 -18 -11z"/>
<path d="M1870 1870 c0 -6 28 -10 65 -10 37 0 65 4 65 10 0 6 -28 10 -65 10
-37 0 -65 -4 -65 -10z"/>
<path d="M1970 1830 c0 -5 20 -10 44 -10 25 0 48 5 51 10 4 6 -13 10 -44 10
-28 0 -51 -4 -51 -10z"/>
<path d="M3368 1803 c7 -3 16 -2 19 1 4 3 -2 6 -13 5 -11 0 -14 -3 -6 -6z"/>
<path d="M3790 1660 c0 -12 -16 -50 -35 -86 -19 -35 -35 -71 -35 -79 0 -19 -3
-19 -42 5 -46 28 -59 25 -104 -17 -22 -21 -57 -51 -78 -68 l-38 -30 11 -60
c24 -133 52 -410 58 -572 7 -195 -1 -182 95 -162 32 7 62 21 75 35 21 23 29
25 78 28 17 1 21 10 27 71 4 39 10 269 14 513 6 407 6 442 -10 442 -9 0 -16
-8 -16 -20z m-180 -390 c0 -5 -7 -10 -15 -10 -8 0 -15 5 -15 10 0 6 7 10 15
10 8 0 15 -4 15 -10z m85 0 c-3 -5 -17 -10 -31 -10 -13 0 -24 5 -24 10 0 6 14
10 31 10 17 0 28 -4 24 -10z m-75 -35 c0 -13 -12 -14 -48 -6 -2 1 0 6 3 11 10
16 45 12 45 -5z m90 -1 c0 -10 -7 -14 -22 -12 -32 5 -35 28 -4 28 17 0 26 -5
26 -16z"/>
<path d="M1937 1554 c-4 -4 -7 -49 -7 -101 l0 -93 225 0 226 0 -3 98 -3 97
-216 3 c-118 1 -218 -1 -222 -4z m113 -86 c0 -45 -13 -62 -39 -53 -11 3 -21
11 -21 16 0 6 9 7 20 4 17 -6 20 -2 20 29 0 20 5 36 10 36 6 0 10 -15 10 -32z
m79 -9 c7 -23 9 -44 5 -47 -4 -4 -9 -1 -11 6 -5 14 -43 16 -43 2 0 -5 -5 -10
-11 -10 -10 0 -7 16 12 68 13 34 35 26 48 -19z m47 16 c3 -14 10 -25 14 -25 4
0 11 11 14 25 4 14 11 25 17 25 10 0 7 -16 -12 -67 -15 -42 -30 -29 -53 45 -5
13 -3 22 3 22 6 0 13 -11 17 -25z m127 -17 c19 -46 16 -58 -9 -38 -12 11 -20
11 -35 2 -22 -14 -23 -12 -7 39 15 50 31 49 51 -3z"/>
<path d="M2095 1460 c-3 -5 -1 -10 4 -10 6 0 11 5 11 10 0 6 -2 10 -4 10 -3 0
-8 -4 -11 -10z"/>
<path d="M3391 1123 c-1 -6 -4 -20 -7 -30 -5 -17 -5 -17 6 0 6 10 9 23 6 30
-3 9 -5 9 -5 0z"/>
<path d="M2034 1082 c-10 -2 -23 -8 -28 -12 -8 -8 86 -314 196 -641 l30 -86
176 -9 c97 -5 452 -8 787 -6 591 2 665 6 665 33 0 5 -113 10 -251 11 l-251 3
-41 130 c-22 72 -75 231 -116 355 l-76 225 -136 -1 c-102 0 -147 -5 -178 -17
-52 -21 -154 -22 -252 -2 -68 13 -472 26 -525 17z m599 -374 c9 -27 12 -48 7
-48 -8 0 -40 83 -40 104 0 20 18 -10 33 -56z m36 4 c7 -24 10 -46 8 -49 -5 -4
-37 83 -37 101 0 21 17 -10 29 -52z m-64 -29 c4 -14 2 -23 -4 -23 -6 0 -11 3
-11 8 0 4 -3 18 -6 32 -8 31 11 16 21 -17z m109 11 c9 -36 -1 -43 -14 -10 -12
33 -12 36 -1 36 5 0 12 -12 15 -26z"/>
<path d="M3341 994 c0 -11 3 -14 6 -6 3 7 2 16 -1 19 -3 4 -6 -2 -5 -13z"/>
<path d="M4180 761 c0 -11 4 -22 9 -25 4 -3 6 6 3 19 -5 30 -12 33 -12 6z"/>
<path d="M3436 647 c3 -10 9 -15 12 -12 3 3 0 11 -7 18 -10 9 -11 8 -5 -6z"/>
<path d="M3746 621 c-3 -4 6 -6 19 -3 14 2 25 6 25 8 0 8 -39 4 -44 -5z"/>
</g>
</svg>
